# xmcd
#
# Track frame offsets:
# 150
# 14511
# 29147
# 47256
# 63059
# 82293
# 98200
# 113233
# 129044
# 145116
# 160434
# 177519
# 197601
#
# Disc length: 2868 seconds
#
# Revision: 1
# Processed by: cddbd v1.5.2PL0 Copyright (c) Steve Scherf et al.
# Submitted via: CedeCatalogueitor 2.6.0.6 http://personales.ya.com/cdcatalogueitor
#
DISCID=ae0b320d
DTITLE=Glenn Golden - Devil In Disguise
DYEAR=2007
DGENRE=
TTITLE0=Milk Cow Blues
TTITLE1=Money Honey Blues
TTITLE2=Devil in Disguise
TTITLE3=Slapping My Babe
TTITLE4=Crossroad
TTITLE5=Back Door Friend
TTITLE6=Death Letter Blues
TTITLE7=Gambling on My Mind
TTITLE8=Hell Blues
TTITLE9=Walking Blues
TTITLE10=Still Cold
TTITLE11=Preaching the Blues
TTITLE12=My Old Love
EXTD=
EXTT0=
EXTT1=
EXTT2=
EXTT3=
EXTT4=
EXTT5=
EXTT6=
EXTT7=
EXTT8=
EXTT9=
EXTT10=
EXTT11=
EXTT12=
PLAYORDER=
